<?xml version="1.0" standalone="no"?>
<!DOCTYPE svg PUBLIC "-//W3C//DTD SVG 1.1//EN" "http://www.w3.org/Graphics/SVG/1.1/DTD/svg11.dtd" >
<svg xmlns="http://www.w3.org/2000/svg" xmlns:xlink="http://www.w3.org/1999/xlink" version="1.1">
<metadata></metadata>
<defs>
<font id="arrows_adfregular" horiz-adv-x="1351" >
<font-face units-per-em="2048" ascent="1638" descent="-410" />
<missing-glyph horiz-adv-x="102" />
<glyph horiz-adv-x="0" />
<glyph unicode="&#xd;" horiz-adv-x="681" />
<glyph unicode=" "  horiz-adv-x="102" />
<glyph unicode="&#x09;" horiz-adv-x="102" />
<glyph unicode="&#xa0;" horiz-adv-x="102" />
<glyph unicode="A" horiz-adv-x="1695" d="M102 295v410l830 -295l-31 204l692 -319h-1491zM135 319h1342l-547 252l31 -204l-826 295v-343z" />
<glyph unicode="B" horiz-adv-x="1695" d="M102 295l693 319l-31 -204l829 295v-410h-1491zM219 319h1342v343l-826 -295l31 204z" />
<glyph unicode="C" horiz-adv-x="1581" d="M102 246l131 246l-131 245l971 -205l-51 205l457 -245l-457 -246l51 205zM246 348l737 144l-737 151l82 -151z" />
<glyph unicode="D" horiz-adv-x="1353" d="M102 801l269 80l80 266l542 -832l109 183l149 -498l-497 150l180 108zM276 772l623 -422l-414 629l-49 -164z" />
<glyph unicode="E" horiz-adv-x="696" d="M102 201l203 -51l-203 972l246 -133l244 131l-203 -970l205 51l-246 -457zM205 979l141 -739l152 737l-150 -82z" />
<glyph unicode="F" d="M102 -63l150 497l108 -180l543 831l80 -268l266 -80l-829 -542l180 -109zM453 289l628 413l-163 50l-44 159z" />
<glyph unicode="G" horiz-adv-x="1583" d="M102 467l457 246l-51 -203l973 203l-133 -246l131 -244l-971 203l51 -205zM598 469l737 -152l-82 150l84 143z" />
<glyph unicode="H" horiz-adv-x="1353" d="M102 1024l498 -150l-180 -108l831 -543l-268 -80l-80 -266l-543 830l-108 -181zM455 674l413 -629l50 164l159 43z" />
<glyph unicode="I" horiz-adv-x="696" d="M102 823l246 457l246 -457l-203 51l203 -972l-246 133l-244 -131l203 970zM199 47l149 82l144 -84l-142 739z" />
<glyph unicode="J" d="M102 287l830 542l-180 109l497 149l-149 -497l-109 180l-542 -831l-80 268zM270 322l164 -50l43 -159l422 622z" />
<glyph unicode="K" horiz-adv-x="1314" d="M102 508v4v4q0 34 41 57h885l-102 144q10 68 53 69h10q20 0 39 -8l184 -266l-184 -266q-25 -6 -43 -6q-47 0 -59 67l102 144h-885q-18 8 -29.5 25.5t-11.5 31.5z" />
<glyph unicode="L" horiz-adv-x="1067" d="M102 856q0 33 19 47q14 18 43 19q15 0 29 -4l626 -625l29 172q33 25 55 24q18 0 31 -12q18 -12 31 -41l-60 -317l-317 -60q-53 31 -53 64q0 20 24 53l172 29l-625 626q-4 12 -4 25z" />
<glyph unicode="M" horiz-adv-x="751" d="M102 182q0 49 68 60l143 -103v885q8 18 24.5 29.5t31.5 11.5h6h6q32 0 55 -41v-885l144 103q68 -10 69 -54v-10q0 -18 -8 -39l-266 -184l-266 184q-6 25 -7 43z" />
<glyph unicode="N" horiz-adv-x="1067" d="M102 436q31 53 64 53q20 0 53 -24l29 -172l626 625q12 4 25 4q33 0 47 -19q18 -14 19 -43q0 -15 -4 -29l-625 -626l172 -29q25 -33 24 -55q0 -18 -12 -31q-12 -18 -41 -31l-317 60z" />
<glyph unicode="O" horiz-adv-x="1314" d="M102 512l185 266q25 6 43 6q47 0 59 -67l-102 -144h884q18 -8 29.5 -24.5t11.5 -30.5v-6v-6q0 -32 -41 -55h-884l102 -144q-10 -68 -53 -69h-10q-20 0 -39 8z" />
<glyph unicode="P" horiz-adv-x="1067" d="M102 588l60 317l317 60q53 -31 53 -64q0 -20 -24 -53l-172 -29l625 -626q4 -12 4 -25q0 -33 -19 -47q-14 -18 -43 -19q-15 0 -29 4l-626 625l-29 -172q-33 -25 -55 -24q-18 0 -31 12q-18 12 -31 41z" />
<glyph unicode="Q" horiz-adv-x="751" d="M102 836v10q0 18 9 39l266 184l266 -184q6 -25 6 -43q0 -49 -67 -60l-144 103v-885q-8 -18 -24.5 -29.5t-30.5 -11.5h-6h-6q-33 0 -56 41v885l-143 -103q-68 10 -70 54z" />
<glyph unicode="R" horiz-adv-x="1067" d="M102 164q0 15 4 29l625 626l-172 29q-25 33 -24 55q0 18 12 31q12 18 41 31l317 -60l60 -317q-31 -53 -64 -53q-20 0 -53 24l-29 172l-626 -625q-12 -4 -25 -4q-33 0 -47 19q-18 14 -19 43z" />
<glyph unicode="S" horiz-adv-x="2160" d="M102 317q0 88 56.5 167t163.5 130q113 -6 335 -67.5t497.5 -132t494.5 -92.5q-4 45 -28 109.5t-24 78.5q1 35 58 35q59 0 140 -44t124 -79t139 -115q-29 -20 -105.5 -81.5t-110.5 -85t-88 -49t-99 -25.5q-57 0 -58 34q0 16 25 85t27 116q-197 -25 -468.5 -98.5 t-499.5 -135t-359 -63.5q-106 61 -163 143t-57 170z" />
<glyph unicode="T" horiz-adv-x="1548" d="M102 770q0 143 84 230t220 87q72 0 149 -26v-21q0 -74 31.5 -165t77 -171.5t131.5 -200.5t152.5 -204t185.5 -229q27 31 56.5 87t52 91t46.5 35q18 0 43 -25q18 -18 33.5 -47t27 -70t18.5 -73.5t13.5 -88t9.5 -84t7 -87t6 -74.5q-47 6 -145.5 16t-158 17.5t-126 28 t-96.5 50.5q-23 23 -23 43q0 27 36 50.5t94 54.5t89 59q-168 133 -415.5 276.5t-413.5 221.5l-164 78q-20 74 -21 141z" />
<glyph unicode="U" horiz-adv-x="817" d="M102 1055q61 106 144.5 162.5t171.5 56.5t167 -56.5t130 -162.5q-70 -61 -119 -166t-82 -268.5t-50.5 -301t-41.5 -372.5q45 2 123 26.5t102 24.5q49 0 49 -59q0 -27 -9 -58t-30.5 -66.5t-40 -65.5t-52.5 -73t-52 -65.5t-57 -67.5t-49 -57q-29 39 -91.5 114.5t-99.5 124 t-69.5 109t-32.5 105.5q0 59 51 59q27 0 108.5 -24.5t126.5 -26.5q-10 82 -23.5 228.5t-21.5 223t-28.5 190t-46 184.5t-71 148t-106.5 134z" />
<glyph unicode="V" horiz-adv-x="1558" d="M102 -213q6 47 16.5 146.5t17.5 159t27.5 125t51.5 97.5q23 23 45 23q27 0 50.5 -36t54 -94t59.5 -89q-2 -1 16 -17q31 -29 87.5 -57.5t91 -52t34.5 -47.5q0 -18 -24 -43q-27 -27 -69 -45.5t-111.5 -30.5t-109.5 -17.5t-131 -12.5t-106 -9zM424 119l16 -17 q356 293 576.5 434.5t392.5 141.5h21q26 75 26 146v5q0 135 -87 219.5t-230 84.5q-72 0 -142 -21v-20q0 -96 -26.5 -187.5t-96 -201t-116.5 -174t-167 -207t-167 -203.5z" />
<glyph unicode="W" horiz-adv-x="1992" d="M102 502q37 29 115 92t125 99t108.5 69t106.5 35q59 -2 59 -54q0 -27 -24.5 -107.5t-26.5 -125.5q76 8 197 19.5t192.5 18.5t171 21.5t166 33t140 45t133 66.5t108.5 93q106 -61 161.5 -143t55.5 -170q0 -90 -56 -170t-163 -131q-61 70 -165.5 118.5t-266.5 81.5 t-303 51.5t-371 40.5q2 -45 25.5 -123.5t23.5 -103.5q0 -47 -57 -47q-37 0 -81 17.5t-100.5 56.5t-91 66.5t-100 81.5t-82.5 69z" />
<glyph unicode="X" horiz-adv-x="1552" d="M102 1167q45 -6 146.5 -16t160 -17.5t125 -29t99.5 -51.5q23 -25 22 -45q0 -25 -35.5 -49.5t-93 -55.5t-88.5 -57q57 -49 172 -143.5t171.5 -139.5t150.5 -112.5t160.5 -98t150.5 -55.5t166 -25h21q20 -74 20 -139q0 -145 -85 -233t-222 -88q-72 0 -150 26v23 q0 92 -41 199.5t-131 240.5t-176 244.5t-227 281.5q-29 -31 -58.5 -87t-52 -90t-45.5 -34q-20 0 -43 23q-27 27 -45 72t-30.5 109.5t-18.5 111.5t-13.5 128t-9.5 107z" />
<glyph unicode="Y" horiz-adv-x="821" d="M102 -119q131 115 190.5 378t102.5 728q-45 -2 -123.5 -26.5t-103.5 -24.5q-47 0 -47 57q0 37 18.5 83t55 99.5t67.5 92.5t81 99t69 83q25 -33 92 -115t101 -126t67 -107.5t35 -108.5q-2 -59 -52 -59q-27 0 -107.5 24.5t-125.5 26.5q8 -72 19.5 -195.5t18.5 -193.5 t21.5 -170t31.5 -165.5t45 -140.5t68 -133.5t93 -107.5q-61 -106 -144 -161.5t-172 -55.5q-90 0 -169.5 56.5t-131.5 162.5z" />
<glyph unicode="Z" horiz-adv-x="1558" d="M102 172q0 72 27 150h25q92 0 198.5 40.5t239.5 130t245.5 176.5t280.5 226q-31 29 -87 58.5t-91 52t-35 47.5q0 18 23 41q33 33 104.5 55t126.5 30.5t163 18.5t134 14q-4 -41 -14 -147.5t-18.5 -160.5t-30 -122.5t-52.5 -101.5q-23 -23 -43 -23q-27 0 -50 36t-54 93.5 t-59 87.5q-45 -55 -122 -148t-121 -146.5t-104.5 -132t-94.5 -137t-67.5 -129t-48 -139.5t-14.5 -138v-21q-72 -20 -139 -20q-145 0 -233.5 86t-88.5 223z" />
<glyph unicode="a" horiz-adv-x="1589" d="M102 307v377l828 -295v205l557 -287h-1385z" />
<glyph unicode="b" horiz-adv-x="1589" d="M102 307l557 287v-205l828 295v-377h-1385z" />
<glyph unicode="c" horiz-adv-x="1581" d="M102 246l131 246l-131 245l971 -205l-51 205l457 -245l-457 -246l51 205z" />
<glyph unicode="d" d="M102 786l267 80l80 267l542 -832l109 182l149 -497l-497 149l180 109z" />
<glyph unicode="e" horiz-adv-x="696" d="M102 207l205 -51l-203 970l244 -133l246 133l-205 -972l205 53l-246 -459z" />
<glyph unicode="f" d="M102 -41l150 498l108 -181l543 830l80 -266l266 -80l-831 -543l182 -108z" />
<glyph unicode="g" horiz-adv-x="1583" d="M102 494l459 245l-51 -204l971 202l-133 -243l133 -246l-973 205l53 -205z" />
<glyph unicode="h" d="M102 1038l498 -149l-180 -109l829 -542l-266 -80l-80 -267l-543 832l-108 -182z" />
<glyph unicode="i" horiz-adv-x="696" d="M102 -102l205 972l-205 -53l246 459l246 -459l-205 51l203 -970l-244 133z" />
<glyph unicode="j" d="M102 264l832 543l-182 108l497 150l-149 -498l-109 181l-542 -830l-80 266z" />
<glyph unicode="k" horiz-adv-x="1447" d="M102 410v204h885v205l359 -307l-359 -307v205h-885z" />
<glyph unicode="l" horiz-adv-x="1247" d="M102 897l146 145l717 -716l145 145l35 -471l-471 35l145 145z" />
<glyph unicode="m" horiz-adv-x="823" d="M102 180h207v1014h205v-1014h207l-309 -358z" />
<glyph unicode="n" horiz-adv-x="1247" d="M102 0l35 471l146 -145l716 716l146 -145l-717 -717l145 -145z" />
<glyph unicode="o" horiz-adv-x="1576" d="M102 512l359 309v-207h1014v-204h-1014v-207z" />
<glyph unicode="p" horiz-adv-x="1247" d="M102 1024l471 -35l-145 -145l717 -717l-146 -145l-716 716l-146 -145z" />
<glyph unicode="q" horiz-adv-x="823" d="M102 844l310 358l309 -358h-207v-1014h-205v1014h-207z" />
<glyph unicode="r" horiz-adv-x="1247" d="M102 127l717 717l-145 145l471 35l-35 -471l-145 145l-717 -716z" />
<glyph unicode="s" horiz-adv-x="1583" d="M102 246l131 246l-131 245q188 -82 497.5 -143.5t475.5 -61.5v25q0 98 -51 180q211 -178 457 -245q-109 -23 -232 -88.5t-225 -157.5q51 88 51 205q-190 0 -470.5 -54.5t-502.5 -150.5z" />
<glyph unicode="t" horiz-adv-x="1353" d="M102 801l269 80l80 266q78 -190 252 -452.5t290 -379.5q86 72 109 181q25 -279 149 -496q-92 61 -226 101t-269 46q98 27 180 109q-135 135 -370.5 295t-463.5 250z" />
<glyph unicode="u" horiz-adv-x="696" d="M102 276q88 -49 205 -49q0 190 -54 471t-151 504l246 -133l246 131q-82 -188 -143.5 -497.5t-61.5 -475.5h25q98 0 180 52q-178 -211 -246 -457q-23 109 -88 232.5t-158 221.5z" />
<glyph unicode="v" d="M102 0q61 92 101.5 226t46.5 270q27 -98 108 -181q135 135 295 371t250 463l80 -268l266 -80q-190 -78 -452 -252t-379 -291q72 -86 180 -108q-279 -25 -496 -150z" />
<glyph unicode="w" horiz-adv-x="1585" d="M102 532q109 23 233 88.5t222 157.5q-49 -88 -49 -205q190 0 471 54.5t504 150.5l-133 -246l131 -245q-188 82 -497.5 143.5t-475.5 61.5v-25q0 -98 51 -180q-211 178 -457 245z" />
<glyph unicode="x" horiz-adv-x="1353" d="M102 1024q92 -61 226.5 -101t269.5 -46q-98 -27 -180 -109q135 -135 370.5 -295t462.5 -250l-268 -80l-80 -266q-78 190 -252 452.5t-291 379.5q-86 -72 -108 -181q-25 279 -150 496z" />
<glyph unicode="y" horiz-adv-x="696" d="M102 -176q82 188 143.5 497.5t61.5 475.5h-24q-98 0 -181 -52q178 211 246 457q23 -109 88.5 -232.5t157.5 -221.5q-88 49 -205 49q0 -190 54.5 -471t150.5 -504l-246 133z" />
<glyph unicode="z" d="M102 223q190 78 452.5 252t379.5 291q-72 86 -180 108q279 25 495 150q-61 -92 -101 -226t-46 -270q-27 98 -109 181q-135 -135 -294.5 -371t-249.5 -463l-80 268z" />
<glyph unicode="&#x2000;" horiz-adv-x="725" />
<glyph unicode="&#x2001;" horiz-adv-x="1450" />
<glyph unicode="&#x2002;" horiz-adv-x="725" />
<glyph unicode="&#x2003;" horiz-adv-x="1450" />
<glyph unicode="&#x2004;" horiz-adv-x="483" />
<glyph unicode="&#x2005;" horiz-adv-x="362" />
<glyph unicode="&#x2006;" horiz-adv-x="241" />
<glyph unicode="&#x2007;" horiz-adv-x="241" />
<glyph unicode="&#x2008;" horiz-adv-x="181" />
<glyph unicode="&#x2009;" horiz-adv-x="290" />
<glyph unicode="&#x200a;" horiz-adv-x="80" />
<glyph unicode="&#x202f;" horiz-adv-x="290" />
<glyph unicode="&#x205f;" horiz-adv-x="362" />
<glyph unicode="&#x25fc;" horiz-adv-x="1024" d="M0 0v1024h1024v-1024h-1024z" />
</font>
</defs>
</svg>
